<?xml version="1.0" standalone="no"?>
<!DOCTYPE svg PUBLIC "-//W3C//DTD SVG 20010904//EN"
 "http://www.w3.org/TR/2001/REC-SVG-20010904/DTD/svg10.dtd">
<svg version="1.0" xmlns="http://www.w3.org/2000/svg"
 width="1200.000000pt" height="1200.000000pt" viewBox="0 0 1200.000000 1200.000000"
 preserveAspectRatio="xMidYMid meet">
<metadata>
Created by potrace 1.14, written by Peter Selinger 2001-2017
</metadata>
<g transform="translate(0.000000,1200.000000) scale(0.100000,-0.100000)"
fill="#000000" stroke="none">
<path d="M5738 10995 c-1 -1 -41 -5 -88 -9 -137 -11 -228 -21 -320 -36 -30 -5
-73 -12 -95 -15 -131 -19 -423 -89 -585 -140 -421 -132 -881 -356 -1235 -602
-136 -95 -335 -248 -401 -308 -6 -5 -44 -39 -84 -75 -121 -107 -344 -334 -425
-431 -11 -13 -40 -49 -65 -79 -25 -30 -48 -57 -51 -60 -3 -3 -43 -54 -88 -115
-46 -60 -90 -119 -98 -129 -17 -21 -160 -238 -179 -271 -20 -36 -104 -179
-120 -205 -8 -14 -59 -115 -114 -225 -231 -469 -383 -947 -466 -1470 -11 -71
-13 -84 -28 -205 -23 -183 -31 -327 -31 -615 0 -255 7 -432 20 -530 5 -30 12
-91 21 -175 2 -25 7 -56 9 -70 3 -14 7 -41 10 -60 31 -198 109 -544 156 -685
5 -16 25 -79 45 -140 158 -485 431 -1010 737 -1421 81 -110 78 -106 163 -209
708 -859 1708 -1455 2754 -1641 126 -23 161 -28 265 -40 28 -3 61 -7 75 -10
158 -26 737 -25 958 1 111 13 195 24 232 31 14 2 66 11 115 20 92 16 371 83
460 111 676 212 1229 519 1745 972 94 82 359 346 427 426 28 33 64 74 78 90
96 109 415 547 415 569 0 3 13 24 29 48 16 24 39 61 51 83 12 22 31 56 42 75
32 55 170 326 210 415 94 207 256 668 282 800 2 11 13 56 24 100 11 44 25 105
31 135 6 30 14 66 17 80 3 14 7 37 9 52 2 15 9 53 14 85 16 91 19 108 36 241
9 74 14 119 20 202 4 47 8 101 11 120 5 43 5 558 0 620 -2 25 -7 90 -11 145
-4 55 -9 107 -10 115 -2 8 -6 44 -10 80 -3 36 -9 79 -11 95 -3 17 -7 41 -9 55
-7 52 -27 160 -56 302 -128 627 -393 1257 -762 1808 -52 78 -232 320 -264 355
-10 11 -40 47 -68 80 -156 188 -395 424 -615 609 -14 11 -41 33 -60 47 -19 15
-46 36 -59 48 -13 11 -27 21 -30 21 -3 0 -18 10 -31 23 -29 25 -44 36 -180
129 -446 304 -1050 569 -1536 673 -201 42 -332 66 -454 80 -19 2 -80 9 -135
16 -87 10 -677 23 -687 14z m482 -1319 c87 -6 218 -21 280 -32 14 -2 52 -8 85
-14 84 -14 86 -14 220 -48 113 -29 304 -89 370 -117 17 -6 66 -27 110 -45 87
-36 326 -156 390 -196 22 -13 47 -27 55 -31 62 -28 327 -220 434 -315 l31 -27
-2209 -1 c-1216 0 -2206 4 -2200 8 312 266 648 467 1014 607 204 78 430 139
648 175 118 19 160 24 307 36 44 3 81 7 82 7 4 4 299 -1 383 -7z m2168 -1004
c229 -231 424 -485 581 -757 89 -153 251 -496 251 -530 0 -7 -1083 -9 -3232
-9 -1778 1 -3234 2 -3235 3 -2 1 7 25 18 54 33 82 40 102 40 104 -1 2 41 85
92 185 136 269 285 497 461 708 87 104 85 102 225 244 l115 116 2283 0 2284 0
117 -118z m901 -1477 c75 -231 128 -470 156 -700 4 -27 8 -61 10 -75 9 -57 16
-174 20 -311 l4 -146 -3485 0 c-2328 0 -3487 4 -3491 10 -10 17 -2 294 12 407
3 19 9 74 15 122 22 185 102 555 131 610 5 10 7 18 5 18 -3 0 8 37 25 83 17
45 31 87 31 92 1 8 998 11 3265 11 l3263 0 39 -121z m170 -1354 c11 -1 13 -22
8 -118 -4 -65 -9 -127 -11 -138 -2 -11 -7 -49 -11 -85 -4 -36 -9 -74 -11 -85
-2 -11 -11 -63 -20 -115 -38 -221 -110 -473 -206 -717 l-59 -153 -3160 0
-3159 0 -21 48 c-12 26 -27 61 -34 77 -13 31 -71 193 -100 280 -19 57 -92 334
-100 380 -2 17 -7 41 -10 55 -2 13 -7 42 -10 65 -3 22 -8 47 -10 55 -4 15 -21
149 -29 230 -14 138 -17 214 -8 219 8 4 6877 6 6951 2z m-349 -1481 c0 -18
-130 -261 -198 -369 -94 -150 -253 -372 -302 -421 -3 -3 -34 -39 -70 -80 -81
-95 -223 -236 -320 -320 -41 -36 -77 -67 -80 -70 -3 -3 -45 -37 -95 -76 l-90
-70 -1965 1 c-1939 1 -1965 1 -1995 20 -37 25 -39 26 -155 121 -109 89 -177
153 -299 278 -99 102 -91 93 -156 171 -27 33 -52 62 -55 65 -3 3 -29 37 -57
75 -29 39 -56 75 -61 80 -21 26 -120 174 -167 253 -51 82 -185 334 -185 346 0
3 1406 6 3125 6 2091 0 3125 -3 3125 -10z m-1260 -1469 c0 -13 -378 -239 -405
-241 -3 0 -40 -17 -82 -36 -76 -35 -275 -114 -293 -116 -3 0 -16 -5 -30 -10
-126 -50 -407 -115 -615 -143 -388 -53 -818 -31 -1195 59 -345 82 -688 222
-980 400 -115 70 -131 82 -126 87 5 5 3726 5 3726 0z"/>
</g>
</svg>
